# xmcd
#
# Track frame offsets:
#	150
#	22758
#	61200
#	81001
#	99324
#	120718
#	137737
#	158170
#	195083
#
# Disc length: 2728 seconds
#
# Revision: 0
# Processed by: cddbd v1.5.2PL0 Copyright (c) Steve Scherf et al.
# Submitted via: EZCDAudioConverter 1.0.6.1
#
DISCID=600aa609
DTITLE=Apocalypse Blues Revue - The Shape of Blues to Come
DYEAR=2018
DGENRE=blues
TTITLE0=Open spaces
TTITLE1=We are one
TTITLE2=Hell to pay
TTITLE3=Have you heard?
TTITLE4=To hell with you
TTITLE5=Nobody rides for free
TTITLE6=Sincere
TTITLE7=What a way to go
TTITLE8=Monumenal blues
EXTD=
EXTT0=
EXTT1=
EXTT2=
EXTT3=
EXTT4=
EXTT5=
EXTT6=
EXTT7=
EXTT8=
PLAYORDER=
